<svg xmlns="http://www.w3.org/2000/svg" xmlns:xlink="http://www.w3.org/1999/xlink" fill="none" version="1.1" width="16" height="16" viewBox="0 0 16 16"><defs><clipPath id="master_svg0_46_02846"><rect x="-1.2000000476837158" y="-1.2000000476837158" width="18.40000009536743" height="18.40000009536743" rx="0"/></clipPath><clipPath id="master_svg1_46_02850"><rect x="3.299999952316284" y="3.299999952316284" width="9.400000095367432" height="9.400000095367432" rx="0"/></clipPath></defs><g clip-path="url(#master_svg0_46_02846)"><path d="M2.40314639,2.758413L2.40292972,3.1950147L2.40178722,5.4973922L2.4000000999999997,8.3332543Q2.39999998,10.5420713,3.90192288,12.266657Q5.402200000000001,13.989353,8.1462374,14.904664L8.3362594,14.968048L8.526247999999999,14.904564Q11.2532721,13.993322,12.7668409,12.240547Q14.266665,10.5036879,14.266665,8.333632L14.266147,5.4975739L14.262505,2.7582424000000003L13.847304,2.6242929Q9.977867100000001,1.37595743,8.6663413,0.50089496L8.3334417,0.27878135000000004L8.0004754,0.5007948Q6.6891963,1.37512314,2.81864448,2.624314L2.40314639,2.758413ZM3.60271364,3.6308396L3.60178709,5.4979882L3.5999999000000003,8.3340111Q3.60000002,10.0927849,4.8068562,11.47856Q6.0415909,12.896347,8.3358369,13.701283Q10.6119351,12.899953,11.8586035,11.45626Q13.066666,10.0572739,13.066666,8.333632L13.066147,5.4977932L13.063664,3.6310089Q9.7833066,2.5506459,8.3332324,1.70592678Q6.8834386,2.5499707000000003,3.60271364,3.6308396Z" fill-rule="evenodd" fill="#0A0A0A" fill-opacity="1"/><g clip-path="url(#master_svg1_46_02850)"><g transform="matrix(0,-0.9999712705612183,0.9999712705612183,0,-4.155969887971878,15.343589294701815)"><path d="M4.74521804,9.75L5.16948596,10.1742641L7.3436494,12.3484278L9.5178127,10.1742641L9.9420805,9.75L9.0935488,8.90146804L8.669284600000001,9.32573596L7.3436494,10.65137106L6.0180141,9.3257359L5.59375,8.90146804L4.74521804,9.75Z" fill-rule="evenodd" fill="#0A0A0B" fill-opacity="1"/></g><line x1="8.299999952316284" y1="9.587499976158142" x2="11.362499952316284" y2="9.587499976158142" fill-opacity="0" stroke-opacity="1" stroke="#0A0A0B" fill="none" stroke-width="1.2000000476837158"/></g></g></svg>