<svg xmlns="http://www.w3.org/2000/svg" xmlns:xlink="http://www.w3.org/1999/xlink" fill="none" version="1.1" width="12.400195360183716" height="13.973437547683716" viewBox="0 0 12.400195360183716 13.973437547683716"><path d="M8.200192523841858,3.504687623841858L4.200002823841858,3.504687623841858L2.999997223841858,3.504690323841858L2.400195323841858,3.504687623841858L2.400195323841858,10.305688523841859L2.400198123841858,10.905691023841857L1.200192573841858,10.905691023841857L1.200195313841858,10.305688523841859L1.2001953738418578,3.504687623841858L0.6000000238418579,3.504687623841858L-0.0000027461581421084347,3.504690323841858L-0.0000027461581421084347,2.304684723841858L0.6000000238418579,2.304687523841858L2.999999923841858,2.304687523841858L2.999999923841858,3.8418579428878274e-9L9.400195723841858,3.8418579428878274e-9L9.400195723841858,2.304687523841858L11.800195023841859,2.304687523841858L12.400198023841858,2.304684723841858L12.400198023841858,3.504690323841858L11.800195023841859,3.5046874238418577L11.200000023841858,3.504687623841858L11.200000023841858,13.973437023841857L1.800195323841858,13.973437023841857L1.200192573841858,13.973440023841858L1.200192573841858,12.773435023841857L1.800195323841858,12.773437023841858L10.000000623841858,12.773437023841858L10.000000623841858,3.504687623841858L9.400197623841859,3.504687623841858L8.200192523841858,3.504690323841858L8.200192523841858,3.504687623841858ZM8.200195423841858,2.304687523841858L8.200195423841858,1.2000000438418579L4.199999923841858,1.2000000438418579L4.199999923841858,2.304687523841858L8.200195423841858,2.304687523841858ZM4.266598823841858,6.2031222238418575L4.266601723841858,6.803125023841858L4.266601723841858,9.482812523841858L4.266598823841858,10.082814823841858L5.466604323841858,10.082814823841858L5.466601523841858,9.482812523841858L5.466601523841858,6.803125023841858L5.466604323841858,6.2031222238418575L4.266598823841858,6.2031222238418575ZM6.933591023841858,6.2031222238418575L6.933593823841858,6.803125023841858L6.933593823841858,9.482812523841858L6.933591023841858,10.082814823841858L8.133596523841858,10.082814823841858L8.133593723841859,9.482812523841858L8.133593723841859,6.803125023841858L8.133596523841858,6.2031222238418575L6.933591023841858,6.2031222238418575Z" fill-rule="evenodd" fill="#747476" fill-opacity="1"/></svg>