<svg xmlns="http://www.w3.org/2000/svg" xmlns:xlink="http://www.w3.org/1999/xlink" fill="none" version="1.1" width="16" height="16" viewBox="0 0 16 16"><defs><clipPath id="master_svg0_26_21323"><rect x="-0.6000000238418579" y="-0.6000000238418579" width="17.200000047683716" height="17.200000047683716" rx="0"/></clipPath></defs><g clip-path="url(#master_svg0_26_21323)"><path d="M6,2.484801532279053L5.5757358,2.9090694522790526L3.3333334,5.151471992279053L2.42426407,4.242402732279053L2,3.818134902279053L1.1514680400000001,4.666666892279053L1.57573596,5.090930892279053L3.3333334,6.848528392279053L6.424264,3.7575975622790527L6.8485317,3.3333334922790527L6,2.484801532279053ZM8.0666642,4.600002992279053L8.666667,4.600000192279053L14,4.600000292279053L14.600002,4.600002992279053L14.600002,3.3999974132790527L14,3.4000001552790526L8.666667499999999,3.4000001922790526L8.0666642,3.3999974132790527L8.0666642,4.600002992279053ZM8.0666642,8.600003292279052L8.666667,8.600000392279053L14,8.600000892279052L14.600002,8.600003292279052L14.600002,7.399997692279053L14,7.400000592279053L8.666667499999999,7.400000592279053L8.0666642,7.399997692279053L8.0666642,8.600003292279052ZM6,9.151468792279053L5.5757358,9.575736492279052L3.3333335,11.818139592279053L2.42426419,10.909069992279052L2,10.484801292279052L1.15146798,11.333333492279053L1.57573584,11.757597492279054L3.3333334,13.515196492279053L6.424264,10.424265392279054L6.8485317,10.000000492279053L6,9.151468792279053ZM8.0666642,12.600003692279053L8.666667,12.600000892279052L14,12.600000892279052L14.600002,12.600003692279053L14.600002,11.399997192279052L14,11.400000092279052L8.666667499999999,11.400001092279053L8.0666642,11.399997192279052L8.0666642,12.600003692279053Z" fill-rule="evenodd" fill="#0A0A0B" fill-opacity="1"/></g></svg>