<svg xmlns="http://www.w3.org/2000/svg" xmlns:xlink="http://www.w3.org/1999/xlink" fill="none" version="1.1" width="14.533334016799927" height="14.533334016799927" viewBox="0 0 14.533334016799927 14.533334016799927"><path d="M4.258138823841858,3.8418579428878274e-9L0.1757359838418579,4.082402823841858L3.8418579428878274e-9,4.258138823841858L3.8418579428878274e-9,10.275193823841859L4.258138323841858,14.533333023841857L10.275193823841859,14.533333023841857L14.533333023841857,10.275193823841859L14.533333023841857,4.258138323841858L10.275193823841859,3.8418579428878274e-9L4.258138823841858,3.8418579428878274e-9ZM1.2000000438418579,4.755194823841858L1.2000000438418579,9.778136823841859L4.755194323841858,13.333334023841857L9.778137823841858,13.333334023841857L13.333334023841857,9.778137823841858L13.333334023841857,4.755194323841858L9.778136823841859,1.2000000438418579L4.755194823841858,1.2000000438418579L1.2000000438418579,4.755194823841858ZM6.666664223841858,3.999997223841858L6.666667123841858,4.600000023841858L6.666667123841858,7.266667523841858L6.666664223841858,7.866669823841858L7.866669823841858,7.866669823841858L7.866666923841858,7.266667023841858L7.866667423841858,4.600000023841858L7.866669823841858,3.999997223841858L6.666664223841858,3.999997223841858ZM6.666664223841858,10.533336323841858L7.266667023841858,10.533334423841858L7.273333623841858,10.533334423841858L7.873336423841858,10.533336323841858L7.873336423841858,9.333331723841859L7.273333623841858,9.333333623841858L7.266667523841858,9.333334523841858L6.666664223841858,9.333331723841859L6.666664223841858,10.533336323841858Z" fill-rule="evenodd" fill="#0A0A0B" fill-opacity="1"/></svg>