<svg xmlns="http://www.w3.org/2000/svg" xmlns:xlink="http://www.w3.org/1999/xlink" fill="none" version="1.1" width="11.86667275428772" height="14.535494089126587" viewBox="0 0 11.86667275428772 14.535494089126587"><path d="M5.933441723841858,-0.12121862615814205L5.600475423841858,0.1007948238418579Q4.289196323841858,0.9751231638418579,0.4186445038418579,2.224314023841858L0.0031464138418578758,2.358413023841858L0.0017872438418579106,5.097392223841858L1.2384185787972513e-7,7.933254323841858Q3.8418579428878274e-9,10.142071323841858,1.5019229038418578,11.866657023841858Q3.002200023841858,13.589353023841857,5.746237423841858,14.504664023841858L5.936259423841858,14.568048023841857L6.126248023841858,14.504564023841858Q8.853272123841858,13.593322023841857,10.366840923841858,11.840547023841857Q11.866665023841858,10.103687923841857,11.866665023841858,7.933632023841858L11.866147023841858,5.097573923841858L11.862505023841859,2.3582424238418582L11.447304023841857,2.224292923841858Q7.577867123841858,0.9759574538418578,6.266341323841858,0.10089498384185791L5.933441723841858,-0.12121862615814205ZM5.933233823841858,1.3059267438418578Q4.483438623841858,2.149970723841858,1.202713663841858,3.2308396238418577L1.2017871138418579,5.097988223841858L1.199999923841858,7.934011123841858Q1.2000000438418579,9.692784923841858,2.406856223841858,11.078560023841858Q3.641590923841858,12.496347023841858,5.935836923841858,13.301283023841858Q8.211935123841858,12.499953023841858,9.458603523841857,11.056260023841858Q10.666666023841858,9.657273923841858,10.666666023841858,7.933632023841858L10.666147023841859,5.097793223841858L10.663664023841857,3.231008923841858Q7.383306623841858,2.150645923841858,5.933233823841858,1.3059267438418578ZM5.333330723841858,4.000322923841858L5.333333623841858,4.600325723841858L5.333333623841858,7.266992223841858L5.333330723841858,7.866995023841858L6.533336323841858,7.866995023841858L6.533333423841858,7.266992223841858L6.533333923841858,4.600325723841858L6.533336323841858,4.000322923841858L5.333330723841858,4.000322923841858ZM5.333330723841858,10.533662423841857L5.933333523841858,10.533659623841858L5.940000223841858,10.533659623841858L6.5400029238418576,10.533662423841857L6.5400029238418576,9.333655923841858L5.940000223841858,9.333658823841859L5.933333523841858,9.333659723841858L5.333330723841858,9.333655923841858L5.333330723841858,10.533662423841857Z" fill-rule="evenodd" fill="#0A0A0A" fill-opacity="1"/></svg>